<svg width="259" height="258" viewBox="0 0 259 258" fill="none" xmlns="http://www.w3.org/2000/svg">
<path d="M86.041 0.529297C84.5531 4.58438 83.2572 8.73239 82.167 12.9629C39.5999 32.3071 10 75.1966 10 125C10 192.931 65.069 248 133 248C183.923 248 227.617 217.054 246.305 172.942C250.504 171.744 254.617 170.343 258.634 168.75C240.541 220.711 191.126 258 133 258C59.5461 258 0 198.454 0 125C0 68.0772 35.7606 19.5082 86.041 0.529297ZM98.3145 6.2168C90.6628 27.6978 89.3683 50.9298 94.5859 73.1279C99.8037 95.3264 111.313 115.549 127.733 131.372C144.154 147.195 164.789 157.948 187.165 162.34C209.541 166.732 232.71 164.577 253.893 156.135L258.869 168.621C235.285 178.02 209.489 180.418 184.576 175.528C159.663 170.638 136.688 158.668 118.406 141.051C100.125 123.434 87.3113 100.919 81.502 76.2041C75.6926 51.4891 77.134 25.6226 85.6533 1.70605L98.3145 6.2168Z" fill="black"/>
</svg>
