<svg width="377" height="379" viewBox="0 0 377 379" fill="none" xmlns="http://www.w3.org/2000/svg">
<path d="M193 313C195.761 313 198 315.239 198 318V374C198 376.761 195.761 379 193 379C190.239 379 188 376.761 188 374V318C188 315.239 190.239 313 193 313ZM79.0625 285.465C81.0151 283.512 84.1812 283.512 86.1338 285.465C88.086 287.417 88.086 290.583 86.1338 292.535L46.5352 332.134C44.5826 334.086 41.4174 334.086 39.4648 332.134C37.5122 330.181 37.5122 327.015 39.4648 325.062L79.0625 285.465ZM291.535 285.465C293.488 283.512 296.654 283.512 298.606 285.465L338.204 325.062C340.157 327.015 340.157 330.181 338.204 332.134C336.252 334.086 333.086 334.086 331.134 332.134L291.535 292.535C289.583 290.583 289.583 287.417 291.535 285.465ZM188.5 90C243.452 90 288 134.548 288 189.5C288 244.452 243.452 289 188.5 289C133.548 289 89 244.452 89 189.5C89 134.548 133.548 90 188.5 90ZM188.5 100C139.071 100 99 140.071 99 189.5C99 238.929 139.071 279 188.5 279C237.929 279 278 238.929 278 189.5C278 140.071 237.929 100 188.5 100ZM61 189C63.7614 189 66 191.239 66 194C66 196.761 63.7614 199 61 199H5C2.23858 199 2.87698e-06 196.761 0 194C2.41411e-07 191.239 2.23858 189 5 189H61ZM372 189C374.761 189 377 191.239 377 194C377 196.761 374.761 199 372 199H316C313.239 199 311 196.761 311 194C311 191.239 313.239 189 316 189H372ZM46.5352 39.4648C48.4878 37.5122 51.6538 37.5122 53.6064 39.4648L93.2041 79.0625C95.1567 81.0151 95.1567 84.1812 93.2041 86.1338C91.2515 88.0859 88.0863 88.086 86.1338 86.1338L46.5352 46.5352C44.583 44.5826 44.583 41.4174 46.5352 39.4648ZM324.062 39.4648C326.015 37.5122 329.181 37.5122 331.134 39.4648C333.086 41.4174 333.086 44.5826 331.134 46.5352L291.535 86.1338C289.583 88.086 286.417 88.086 284.465 86.1338C282.512 84.1812 282.512 81.0151 284.465 79.0625L324.062 39.4648ZM193 0C195.761 -1.66252e-07 198 2.23858 198 5V61C198 63.7614 195.761 66 193 66C190.239 66 188 63.7614 188 61V5C188 2.23858 190.239 1.66252e-07 193 0Z" fill="black"/>
</svg>
